<svg xmlns="http://www.w3.org/2000/svg" xmlns:xlink="http://www.w3.org/1999/xlink" version="1.1" id="Layer_1" x="0px" y="0px" width="276.729px" height="78.5px" viewBox="0 0 276.729 78.5" enable-background="new 0 0 276.729 78.5" xml:space="preserve">
<path fill="#010101" d="M79.394,29.354c0-0.779,0.129-1.562,0.384-2.351c0.257-0.789,0.629-1.505,1.121-2.151  c0.492-0.645,1.085-1.172,1.783-1.582c0.696-0.41,1.485-0.615,2.366-0.615h17.914c0.409,0,0.757,0.144,1.044,0.43  c0.286,0.287,0.43,0.636,0.43,1.045c0,0.41-0.144,0.758-0.43,1.044c-0.287,0.288-0.635,0.431-1.044,0.431H85.693  c-0.717,0-1.297,0.128-1.736,0.384c-0.441,0.256-0.789,0.57-1.045,0.937c-0.257,0.368-0.431,0.773-0.521,1.214  c-0.093,0.44-0.139,0.844-0.139,1.214c0,0.368,0.046,0.772,0.139,1.213c0.09,0.441,0.264,0.845,0.521,1.214  c0.256,0.369,0.604,0.682,1.045,0.937c0.439,0.257,1.019,0.384,1.736,0.384h17.269c0.409,0,0.757,0.143,1.044,0.43  c0.286,0.288,0.43,0.635,0.43,1.044c0,0.411-0.144,0.759-0.43,1.046c-0.287,0.287-0.635,0.43-1.044,0.43h-18.22  c-0.842,0-1.589-0.204-2.244-0.615c-0.657-0.41-1.214-0.937-1.676-1.582c-0.46-0.645-0.813-1.368-1.06-2.166  C79.517,30.89,79.394,30.112,79.394,29.354"/>
<path fill="#010101" d="M132.52,29.354c0,0.779-0.128,1.563-0.384,2.35c-0.255,0.79-0.629,1.506-1.121,2.152  c-0.492,0.644-1.085,1.172-1.781,1.581c-0.698,0.411-1.487,0.615-2.366,0.615h-14.012c-0.841-0.042-1.588-0.271-2.243-0.69  c-0.656-0.421-1.214-0.949-1.674-1.583c-0.462-0.636-0.815-1.341-1.06-2.12c-0.248-0.778-0.37-1.546-0.37-2.305  c0-0.779,0.129-1.562,0.383-2.35c0.257-0.789,0.63-1.506,1.122-2.152c0.492-0.645,1.086-1.172,1.784-1.582  c0.695-0.41,1.484-0.615,2.365-0.615h14.012c0.84,0.042,1.587,0.272,2.242,0.69c0.656,0.422,1.214,0.949,1.674,1.584  c0.461,0.635,0.816,1.342,1.061,2.12C132.399,27.827,132.52,28.595,132.52,29.354 M127.941,32.717  c0.452-0.254,0.804-0.568,1.061-0.937c0.257-0.369,0.43-0.773,0.522-1.213c0.093-0.441,0.139-0.846,0.139-1.214  c0-0.369-0.046-0.774-0.139-1.214c-0.092-0.441-0.265-0.846-0.522-1.214c-0.257-0.367-0.609-0.681-1.061-0.937  c-0.451-0.256-1.023-0.383-1.72-0.383h-12.413c-0.717,0-1.297,0.127-1.736,0.383c-0.442,0.256-0.789,0.57-1.044,0.937  c-0.258,0.368-0.43,0.773-0.523,1.214c-0.092,0.44-0.138,0.845-0.138,1.214c0,0.368,0.046,0.773,0.138,1.214  c0.093,0.44,0.265,0.844,0.523,1.213c0.255,0.369,0.602,0.683,1.044,0.937c0.439,0.257,1.019,0.384,1.736,0.384h12.413  C126.918,33.102,127.49,32.975,127.941,32.717"/>
<path fill="#010101" d="M156.378,28.14c-0.09-0.441-0.265-0.846-0.521-1.214c-0.257-0.368-0.61-0.681-1.062-0.937  c-0.449-0.256-1.023-0.384-1.719-0.384h-11.095c-0.716,0-1.295,0.128-1.733,0.384c-0.442,0.256-0.791,0.569-1.045,0.937  c-0.258,0.368-0.43,0.773-0.522,1.214c-0.093,0.439-0.14,0.844-0.14,1.214v5.222c0,0.411-0.143,0.759-0.431,1.046  c-0.287,0.287-0.633,0.43-1.043,0.43c-0.411,0-0.759-0.143-1.047-0.43c-0.287-0.287-0.429-0.635-0.429-1.046v-5.222  c0-0.779,0.128-1.562,0.384-2.351c0.256-0.789,0.631-1.506,1.121-2.151c0.491-0.646,1.088-1.172,1.782-1.583  c0.697-0.409,1.485-0.614,2.369-0.614h12.871c0.842,0.041,1.588,0.272,2.243,0.69c0.656,0.421,1.214,0.949,1.675,1.584  c0.463,0.635,0.815,1.342,1.061,2.12c0.246,0.778,0.369,1.546,0.369,2.305v5.222c0,0.411-0.146,0.759-0.432,1.046  c-0.285,0.287-0.634,0.43-1.044,0.43c-0.409,0-0.758-0.143-1.045-0.43c-0.286-0.287-0.43-0.635-0.43-1.046v-5.222  C156.518,28.984,156.472,28.579,156.378,28.14"/>
<path fill="#010101" d="M184.388,22.655c0.408,0,0.757,0.144,1.044,0.43c0.286,0.287,0.429,0.635,0.429,1.045  c0,0.389-0.133,0.722-0.397,0.999c-0.267,0.276-0.584,0.435-0.951,0.476h-6.177c-0.615,0.041-1.122,0.189-1.521,0.445  c-0.4,0.256-0.713,0.569-0.938,0.938c-0.227,0.367-0.379,0.769-0.459,1.197c-0.084,0.431-0.127,0.82-0.127,1.169v5.222  c0,0.411-0.143,0.759-0.428,1.046c-0.289,0.286-0.636,0.43-1.047,0.43c-0.408,0-0.757-0.144-1.044-0.43  c-0.286-0.287-0.429-0.635-0.429-1.046v-5.222c0-0.636,0.082-1.275,0.246-1.921c0.162-0.646,0.408-1.255,0.736-1.828h-10.078  c-0.412,0-0.758-0.143-1.045-0.431c-0.287-0.287-0.43-0.635-0.43-1.044c0-0.41,0.143-0.758,0.43-1.045  c0.287-0.286,0.633-0.43,1.045-0.43H184.388z"/>
<path fill="#010101" d="M212.962,34.576c0,0.411-0.145,0.759-0.43,1.046c-0.286,0.287-0.635,0.43-1.045,0.43  c-0.205,0-0.391-0.042-0.553-0.123c-0.164-0.082-0.318-0.184-0.46-0.307c-0.124-0.124-0.218-0.226-0.276-0.308  c-0.842-1.044-1.707-1.863-2.598-2.457c-0.89-0.595-1.828-1.044-2.811-1.353c-0.984-0.307-2.023-0.496-3.12-0.569  c-1.095-0.07-2.269-0.108-3.519-0.108h-6.268v3.749c0,0.411-0.146,0.759-0.445,1.046c-0.299,0.287-0.64,0.43-1.028,0.43  c-0.41,0-0.759-0.143-1.046-0.43c-0.287-0.287-0.432-0.635-0.432-1.046V26.68c0-0.614,0.113-1.168,0.34-1.66  c0.225-0.491,0.512-0.91,0.859-1.259c0.35-0.349,0.748-0.619,1.199-0.814c0.449-0.194,0.9-0.292,1.351-0.292h16.04  c0.574,0,1.116,0.108,1.629,0.322c0.512,0.216,0.963,0.507,1.354,0.876c0.388,0.37,0.695,0.799,0.921,1.291  c0.226,0.492,0.337,1.025,0.337,1.598c0,0.41-0.145,0.758-0.43,1.044c-0.286,0.288-0.635,0.43-1.045,0.43  c-0.409,0-0.756-0.142-1.045-0.43c-0.287-0.286-0.43-0.634-0.43-1.044c0-0.308-0.109-0.563-0.322-0.769  c-0.215-0.205-0.467-0.327-0.754-0.368h-16.1c-0.266,0-0.48,0.067-0.646,0.2c-0.164,0.133-0.266,0.291-0.307,0.476v1.598h6.268  c1.803,0,3.432,0.102,4.887,0.306c1.456,0.206,2.77,0.539,3.947,0.999c1.178,0.461,2.232,1.065,3.166,1.812  c0.932,0.749,1.767,1.666,2.504,2.751C212.86,34.014,212.962,34.291,212.962,34.576"/>
<path fill="#010101" d="M241.048,29.354c0,0.779-0.129,1.563-0.386,2.35c-0.255,0.79-0.63,1.506-1.121,2.152  c-0.489,0.644-1.087,1.172-1.782,1.581c-0.697,0.411-1.485,0.615-2.367,0.615h-14.01c-0.84-0.042-1.588-0.271-2.242-0.69  c-0.657-0.421-1.213-0.949-1.676-1.583c-0.462-0.636-0.815-1.341-1.06-2.12c-0.246-0.778-0.37-1.546-0.37-2.305  c0-0.779,0.128-1.562,0.387-2.35c0.254-0.789,0.629-1.506,1.119-2.152c0.492-0.645,1.086-1.172,1.782-1.582  c0.698-0.41,1.485-0.615,2.367-0.615h14.01c0.84,0.042,1.588,0.272,2.245,0.69c0.654,0.422,1.213,0.949,1.675,1.584  c0.46,0.635,0.813,1.342,1.06,2.12C240.925,27.827,241.048,28.595,241.048,29.354 M236.47,32.717  c0.448-0.254,0.803-0.568,1.06-0.937c0.255-0.369,0.43-0.773,0.522-1.213c0.092-0.441,0.139-0.846,0.139-1.214  c0-0.369-0.047-0.774-0.139-1.214c-0.093-0.441-0.268-0.846-0.522-1.214c-0.257-0.367-0.611-0.681-1.06-0.937  c-0.453-0.256-1.025-0.383-1.722-0.383h-12.415c-0.718,0-1.296,0.127-1.736,0.383c-0.439,0.256-0.789,0.57-1.043,0.937  c-0.256,0.368-0.432,0.773-0.523,1.214c-0.092,0.44-0.137,0.845-0.137,1.214c0,0.368,0.045,0.773,0.137,1.214  c0.092,0.44,0.268,0.844,0.523,1.213c0.254,0.369,0.604,0.683,1.043,0.937c0.44,0.257,1.019,0.384,1.736,0.384h12.415  C235.444,33.102,236.017,32.975,236.47,32.717"/>
<path fill="#010101" d="M246.698,35.729c-0.51-0.215-0.955-0.507-1.336-0.875c-0.377-0.37-0.68-0.799-0.907-1.291  c-0.224-0.491-0.336-1.025-0.336-1.598v-7.836c0-0.409,0.142-0.757,0.429-1.044c0.287-0.287,0.635-0.43,1.047-0.43  c0.388,0,0.73,0.143,1.027,0.43c0.298,0.287,0.447,0.635,0.447,1.044v7.836c0,0.306,0.115,0.573,0.352,0.799  c0.236,0.225,0.506,0.338,0.815,0.338h18.437c0.409,0,0.758,0.143,1.045,0.429c0.285,0.289,0.428,0.636,0.428,1.045  c0,0.41-0.143,0.759-0.428,1.046c-0.287,0.286-0.636,0.43-1.045,0.43h-18.346C247.755,36.052,247.213,35.944,246.698,35.729"/>
<path fill="#010101" d="M87.384,48.789c0-0.402,0.142-0.746,0.424-1.03c0.284-0.282,0.628-0.425,1.032-0.425h11.619  c0.505,0,0.981,0.097,1.426,0.287c0.445,0.193,0.835,0.457,1.169,0.789c0.331,0.334,0.591,0.729,0.772,1.182  c0.183,0.458,0.274,0.939,0.274,1.443v0.668c0,0.505-0.091,0.984-0.274,1.439c-0.181,0.457-0.441,0.852-0.772,1.184  c-0.334,0.334-0.724,0.597-1.169,0.789c-0.445,0.191-0.921,0.287-1.426,0.287H84.654c-0.83,0-1.567-0.201-2.215-0.605  c-0.647-0.405-1.198-0.926-1.653-1.563c-0.455-0.637-0.804-1.35-1.046-2.139c-0.243-0.789-0.364-1.557-0.364-2.307  c0-0.768,0.125-1.541,0.378-2.319s0.622-1.487,1.108-2.124c0.484-0.637,1.071-1.158,1.759-1.563s1.467-0.605,2.335-0.605h17.687  c0.406,0,0.748,0.141,1.032,0.423c0.283,0.284,0.425,0.628,0.425,1.032s-0.142,0.748-0.425,1.031  c-0.284,0.283-0.626,0.426-1.032,0.426h-17.02c-0.708,0-1.278,0.127-1.713,0.378c-0.435,0.254-0.779,0.562-1.031,0.926  c-0.253,0.363-0.426,0.763-0.516,1.197c-0.091,0.435-0.137,0.835-0.137,1.198c0,0.365,0.046,0.766,0.137,1.199  c0.09,0.437,0.263,0.836,0.516,1.197c0.252,0.364,0.596,0.674,1.031,0.926s1.005,0.379,1.713,0.379h14.715  c0.243,0,0.46-0.11,0.652-0.334c0.192-0.222,0.289-0.484,0.289-0.787s-0.087-0.567-0.258-0.791  c-0.173-0.221-0.399-0.332-0.683-0.332H88.84c-0.404,0-0.748-0.141-1.032-0.424C87.526,49.539,87.384,49.193,87.384,48.789"/>
<path fill="#010101" d="M109.681,55.084c-0.505-0.211-0.946-0.5-1.319-0.863c-0.375-0.365-0.674-0.789-0.896-1.275  c-0.223-0.484-0.332-1.011-0.332-1.576v-7.736c0-0.405,0.14-0.748,0.423-1.032c0.284-0.282,0.627-0.423,1.032-0.423  c0.384,0,0.722,0.141,1.016,0.423c0.294,0.284,0.44,0.627,0.44,1.032v7.736c0,0.303,0.117,0.565,0.349,0.787  c0.232,0.224,0.501,0.334,0.804,0.334h18.201c0.406,0,0.749,0.143,1.033,0.426c0.283,0.283,0.425,0.627,0.425,1.031  c0,0.405-0.142,0.748-0.425,1.031c-0.284,0.283-0.627,0.424-1.033,0.424h-18.11C110.722,55.402,110.185,55.298,109.681,55.084"/>
<path fill="#010101" d="M157.827,48.79c0,0.769-0.127,1.541-0.381,2.319c-0.252,0.779-0.621,1.488-1.106,2.125  c-0.484,0.637-1.073,1.158-1.761,1.563c-0.687,0.404-1.465,0.605-2.334,0.605h-13.834c-0.83-0.039-1.567-0.268-2.215-0.682  c-0.646-0.414-1.199-0.935-1.653-1.563c-0.454-0.626-0.804-1.323-1.046-2.092c-0.243-0.77-0.365-1.527-0.365-2.276  c0-0.769,0.126-1.543,0.382-2.319c0.25-0.779,0.62-1.488,1.105-2.125c0.486-0.637,1.072-1.158,1.76-1.563s1.467-0.605,2.336-0.605  h13.833c0.83,0.039,1.568,0.268,2.214,0.682c0.647,0.414,1.198,0.936,1.655,1.563c0.455,0.626,0.804,1.324,1.045,2.092  C157.706,47.284,157.827,48.043,157.827,48.79 M153.307,52.111c0.444-0.252,0.793-0.561,1.046-0.926  c0.253-0.362,0.426-0.76,0.518-1.197c0.09-0.434,0.137-0.834,0.137-1.198s-0.047-0.765-0.137-1.199  c-0.092-0.434-0.265-0.834-0.518-1.198c-0.253-0.363-0.602-0.67-1.046-0.924c-0.444-0.253-1.013-0.379-1.7-0.379h-12.255  c-0.707,0-1.28,0.126-1.714,0.379c-0.437,0.254-0.779,0.561-1.033,0.924c-0.252,0.364-0.423,0.765-0.515,1.198  c-0.09,0.435-0.136,0.835-0.136,1.199s0.046,0.765,0.136,1.198c0.092,0.438,0.263,0.835,0.515,1.197  c0.254,0.365,0.596,0.674,1.033,0.926c0.434,0.253,1.007,0.38,1.714,0.38h12.255C152.294,52.491,152.862,52.364,153.307,52.111"/>
<path fill="#010101" d="M161.285,54.979c-0.284-0.283-0.425-0.627-0.425-1.031V43.633c0-0.404,0.141-0.748,0.425-1.033  c0.284-0.281,0.627-0.422,1.032-0.422h18.17c0.568,0,1.1,0.104,1.593,0.317c0.496,0.212,0.932,0.501,1.306,0.864  c0.373,0.365,0.667,0.793,0.879,1.289c0.213,0.496,0.319,1.027,0.319,1.592c0,0.506-0.086,0.978-0.257,1.412  c-0.172,0.437-0.401,0.824-0.684,1.168c0.282,0.343,0.512,0.734,0.684,1.168c0.171,0.437,0.257,0.895,0.257,1.38  c0,0.567-0.106,1.093-0.319,1.577c-0.212,0.486-0.506,0.91-0.879,1.274c-0.374,0.365-0.81,0.653-1.306,0.865  c-0.493,0.213-1.024,0.317-1.593,0.317h-18.17C161.912,55.402,161.569,55.262,161.285,54.979 M163.772,45.09v2.244h16.867  c0.303,0,0.567-0.102,0.791-0.303c0.221-0.204,0.334-0.465,0.334-0.791c0-0.303-0.117-0.57-0.351-0.803s-0.502-0.348-0.806-0.348  H163.772z M163.772,52.49h16.836c0.304,0,0.572-0.11,0.806-0.334c0.233-0.221,0.351-0.484,0.351-0.788  c0-0.322-0.117-0.593-0.351-0.804c-0.233-0.213-0.502-0.318-0.806-0.318h-16.836V52.49z"/>
<path fill="#010101" d="M190.196,54.857c-0.305,0.363-0.679,0.545-1.121,0.545c-0.408,0-0.75-0.141-1.033-0.424  c-0.284-0.283-0.426-0.627-0.426-1.031c0-0.363,0.102-0.656,0.305-0.879l7.371-9.92c0.345-0.467,0.8-0.846,1.365-1.139  c0.566-0.293,1.172-0.439,1.821-0.439c0.608,0,1.183,0.131,1.729,0.395c0.545,0.264,0.99,0.625,1.334,1.09l7.373,9.86  c0.119,0.144,0.223,0.3,0.303,0.47c0.08,0.174,0.119,0.36,0.119,0.563c0,0.404-0.141,0.748-0.422,1.031  c-0.283,0.283-0.627,0.424-1.031,0.424c-0.486,0-0.87-0.189-1.153-0.575l-7.069-9.435c-0.145-0.162-0.318-0.338-0.533-0.532  c-0.209-0.19-0.428-0.287-0.649-0.287c-0.224,0-0.442,0.097-0.653,0.287c-0.213,0.194-0.379,0.37-0.5,0.532L190.196,54.857z   M196.598,52.127c0-0.525,0.182-0.971,0.545-1.335c0.365-0.362,0.81-0.546,1.336-0.546c0.524,0,0.972,0.184,1.334,0.546  c0.364,0.364,0.546,0.81,0.546,1.335s-0.182,0.971-0.546,1.336c-0.362,0.362-0.81,0.545-1.334,0.545  c-0.526,0-0.971-0.183-1.336-0.545C196.779,53.098,196.598,52.652,196.598,52.127"/>
<path fill="#010101" d="M214.922,55.084c-0.505-0.211-0.946-0.5-1.319-0.863c-0.375-0.365-0.674-0.789-0.897-1.275  c-0.222-0.484-0.332-1.011-0.332-1.576v-7.736c0-0.405,0.14-0.748,0.424-1.032c0.284-0.282,0.626-0.423,1.031-0.423  c0.385,0,0.724,0.141,1.017,0.423c0.292,0.284,0.44,0.627,0.44,1.032v7.736c0,0.303,0.116,0.565,0.349,0.787  c0.23,0.224,0.502,0.334,0.805,0.334h18.201c0.406,0,0.748,0.143,1.032,0.426c0.285,0.283,0.424,0.627,0.424,1.031  c0,0.405-0.139,0.748-0.424,1.031c-0.284,0.283-0.626,0.424-1.032,0.424h-18.111C215.964,55.402,215.426,55.298,214.922,55.084"/>
<path fill="#044467" d="M28.702,38.058c0-12.978,10.521-23.499,23.5-23.499c0.173,0,0.345,0.009,0.519,0.014L40.733,2.584  L6.145,37.168l34.588,34.587l10.232-10.231C38.561,60.882,28.702,50.619,28.702,38.058"/>
<path fill="#C62F30" d="M64.33,38.058c0,6.489-5.261,11.75-11.749,11.75c-6.489,0-11.75-5.261-11.75-11.75  c0-6.489,5.261-11.749,11.75-11.749C59.068,26.309,64.33,31.569,64.33,38.058"/>
</svg>