<svg xmlns="http://www.w3.org/2000/svg" version="1.1" x="0" y="0" viewBox="0 0 512.001 512.001" style="enable-background:new 0 0 512 512" xml:space="preserve" class=""><g><path d="M443.077 379.077a44.296 44.296 0 0 1-36.511-19.206l-21.682-31.538c-25.541 45.795-74.094 75.36-128.883 75.36-76.452 0-139.524-58.396-146.96-132.923h14.037a14.768 14.768 0 0 0 12.17-23.137l-21.53-31.316-32.624-47.454a14.768 14.768 0 0 0-24.341-.001l-54.154 78.77A14.77 14.77 0 0 0 14.77 270.77h15.24c3.514 54.931 26.587 106.091 65.859 145.364 42.773 42.773 99.642 66.329 160.132 66.329s117.359-23.556 160.132-66.329a227.996 227.996 0 0 0 30.085-37.178 44.903 44.903 0 0 1-3.141.121z" opacity="1" data-original="#000000"></path><path d="M267.255 241.231H244.75c-4.266 0-7.736-3.47-7.736-7.736v-11.253c0-4.265 3.47-7.735 7.736-7.735h22.505c4.266 0 7.736 3.47 7.736 7.735 0 8.157 6.613 14.769 14.769 14.769 8.156 0 14.769-6.613 14.769-14.769 0-19.366-14.848-35.325-33.759-37.103v-7.907c0-8.157-6.613-14.769-14.769-14.769-8.157 0-14.769 6.613-14.769 14.769v7.907c-18.91 1.778-33.759 17.737-33.759 37.103v11.253c0 20.554 16.721 37.275 37.275 37.275h22.505c4.266 0 7.736 3.47 7.736 7.736v11.253c0 4.265-3.471 7.736-7.736 7.736h-22.505c-4.266 0-7.736-3.47-7.736-7.735 0-8.157-6.613-14.769-14.769-14.769-8.156 0-14.769 6.613-14.769 14.769 0 19.366 14.848 35.325 33.759 37.103v7.906c0 8.157 6.613 14.769 14.769 14.769 8.157 0 14.769-6.613 14.769-14.769v-7.907c18.909-1.778 33.759-17.737 33.759-37.103v-11.253c-.001-20.554-16.721-37.275-37.275-37.275z" opacity="1" data-original="#000000"></path><path d="M510.303 249.125a14.772 14.772 0 0 0-13.072-7.894h-15.24c-3.514-54.931-26.587-106.091-65.859-145.364-42.772-42.772-99.642-66.328-160.131-66.328S138.641 53.095 95.869 95.868a227.996 227.996 0 0 0-30.085 37.178 44.248 44.248 0 0 1 3.14-.122 44.295 44.295 0 0 1 36.511 19.206l21.682 31.538c25.541-45.795 74.094-75.359 128.883-75.359 76.452 0 139.524 58.396 146.96 132.923h-14.037a14.768 14.768 0 0 0-12.17 23.137l21.53 31.316 32.624 47.454a14.77 14.77 0 0 0 24.342 0l19.554-28.443 34.599-50.326a14.773 14.773 0 0 0 .901-15.245z" opacity="1" data-original="#000000"></path></g></svg>