<svg xmlns="http://www.w3.org/2000/svg" version="1.1" x="0" y="0" viewBox="0 0 32 32" style="enable-background:new 0 0 512 512" xml:space="preserve" class=""><g><path d="M16 0C7.178 0 0 7.178 0 16s7.178 16 16 16 16-7.178 16-16S24.822 0 16 0zm0 30C8.28 30 2 23.72 2 16S8.28 2 16 2s14 6.28 14 14-6.28 14-14 14z" data-original="#000000" class=""></path><path d="M22.364 9.636a1 1 0 0 0-1.414 0L16 14.586l-4.95-4.95a1 1 0 1 0-1.414 1.414l4.95 4.95-4.95 4.95a1 1 0 0 0 0 1.414 1.015 1.015 0 0 0 1.414 0l4.95-4.95 4.95 4.95a1.016 1.016 0 0 0 1.414 0 1 1 0 0 0 0-1.414L17.414 16l4.95-4.95a1 1 0 0 0 0-1.414z" data-original="#000000" class=""></path></g></svg>